<?xml version="1.0" standalone="no"?>
<!DOCTYPE svg PUBLIC "-//W3C//DTD SVG 20010904//EN"
 "http://www.w3.org/TR/2001/REC-SVG-20010904/DTD/svg10.dtd">
<svg version="1.0" xmlns="http://www.w3.org/2000/svg"
 width="600.000000pt" height="600.000000pt" viewBox="0 0 600.000000 600.000000"
 preserveAspectRatio="xMidYMid meet">

<g transform="translate(0.000000,600.000000) scale(0.100000,-0.100000)"
fill="#000000" stroke="none">
<path d="M2017 5290 c-53 -9 -87 -33 -87 -61 0 -33 58 -75 226 -163 209 -108
400 -234 491 -323 71 -69 131 -149 120 -159 -3 -4 -46 0 -94 7 -137 20 -433
15 -573 -9 -294 -53 -518 -156 -691 -319 -95 -90 -114 -154 -54 -181 40 -18
55 -16 305 47 407 103 647 141 893 141 147 0 251 -14 322 -42 17 -6 31 -12 33
-14 2 -1 -25 -28 -59 -60 -133 -127 -299 -346 -408 -541 -129 -229 -232 -519
-281 -785 l-17 -98 266 0 267 0 37 183 c42 208 97 417 168 631 58 176 200 536
211 536 14 0 135 -191 202 -321 84 -161 137 -297 180 -459 40 -149 55 -180 91
-180 30 0 54 42 81 145 15 56 19 104 18 235 0 150 -3 173 -27 253 -15 49 -39
110 -52 138 -14 27 -22 49 -17 49 14 0 276 -164 392 -246 168 -117 353 -270
475 -389 157 -155 201 -181 226 -134 16 31 4 102 -37 221 -144 414 -450 725
-873 889 -67 26 -144 49 -301 89 l-45 12 60 25 c169 69 383 111 610 120 187 7
225 17 225 62 0 80 -213 169 -454 190 -173 15 -354 -3 -581 -56 -69 -16 -110
-22 -113 -15 -1 5 -20 37 -40 71 -157 258 -433 442 -742 495 -111 19 -292 27
-353 16z"/>
<path d="M1929 2611 l-29 -29 0 -425 0 -424 25 -27 c23 -25 27 -26 145 -26 73
0 120 -4 120 -10 0 -6 -39 -10 -97 -10 -108 0 -152 -14 -185 -60 -26 -37 -122
-615 -114 -693 6 -58 20 -96 40 -109 6 -4 414 -8 907 -8 1024 0 920 -11 938
100 10 60 7 89 -42 382 -42 247 -58 323 -73 339 -34 38 -76 49 -194 49 -72 0
-109 4 -105 10 4 6 60 10 136 10 124 0 131 1 154 24 13 13 26 39 30 57 3 19 5
211 3 427 l-3 394 -33 29 -32 29 -781 0 -781 0 -29 -29z m1536 -441 l0 -335
-717 -3 -718 -2 0 340 0 340 718 -2 717 -3 0 -335z m48 -602 c8 -13 36 -156
63 -319 41 -250 46 -299 35 -313 -12 -14 -97 -16 -871 -16 -804 0 -858 1 -872
18 -15 15 -11 44 34 317 33 197 55 306 66 318 14 16 64 17 773 17 l759 0 13
-22z"/>
<path d="M2122 1521 c-19 -12 -64 -333 -48 -343 6 -4 305 -8 664 -8 575 0 653
2 658 15 9 24 -35 328 -49 337 -17 11 -1209 10 -1225 -1z"/>
<path d="M2515 1046 c-4 -36 -4 -69 0 -75 4 -7 78 -11 219 -11 243 0 242 0
231 72 -11 70 -15 78 -39 78 -22 0 -23 -2 -15 -42 4 -24 8 -46 9 -50 0 -5 -82
-8 -181 -8 l-182 0 7 50 c6 48 6 50 -18 50 -23 0 -25 -5 -31 -64z"/>
</g>
</svg>
