<?xml version="1.0" standalone="no"?>
<!DOCTYPE svg PUBLIC "-//W3C//DTD SVG 20010904//EN"
 "http://www.w3.org/TR/2001/REC-SVG-20010904/DTD/svg10.dtd">
<svg version="1.0" xmlns="http://www.w3.org/2000/svg"
 width="958.000000pt" height="639.000000pt" viewBox="0 0 958.000000 639.000000"
 preserveAspectRatio="xMidYMid meet">

<g transform="translate(0.000000,639.000000) scale(0.100000,-0.100000)"
fill="#000000" stroke="none">
<path d="M4957 4140 c-279 -27 -519 -51 -533 -54 -20 -5 -24 -12 -24 -44 0
-38 126 -852 134 -859 18 -19 955 25 1142 53 33 5 46 2 61 -13 15 -15 25 -17
53 -10 22 6 29 11 21 16 -10 6 -7 14 11 33 22 24 25 24 73 13 89 -20 115 -40
215 -164 52 -65 57 -78 63 -182 5 -77 3 -109 -12 -160 l-19 -64 -4 45 -5 45
-1 -54 c-1 -30 -16 -149 -33 -265 -35 -247 -35 -336 3 -436 13 -36 29 -74 35
-85 5 -11 27 -69 48 -130 21 -60 43 -117 50 -125 6 -8 12 -30 14 -49 2 -19 7
-45 12 -58 9 -23 8 -24 -29 -17 -20 4 -42 11 -48 15 -7 6 -21 5 -35 0 -13 -5
-18 -10 -11 -10 15 -1 16 -41 0 -41 -6 0 -9 -2 -7 -4 5 -5 76 8 102 19 10 4
17 3 17 -3 0 -6 -10 -14 -22 -18 -15 -6 25 -12 117 -20 240 -21 405 -16 405
12 0 13 40 29 105 40 22 4 45 10 50 14 6 4 24 10 40 13 17 3 53 10 80 16 68
13 107 29 100 41 -3 5 0 7 9 4 13 -5 13 -2 3 19 -8 17 -14 22 -19 14 -5 -8 -8
-6 -8 6 0 14 -5 17 -20 12 -15 -5 -23 0 -32 19 -12 28 -52 38 -42 11 9 -22
-22 -19 -46 5 -11 11 -17 20 -12 20 9 0 -20 20 -30 20 -5 0 -8 -6 -8 -14 0
-21 -18 -30 -34 -17 -7 6 -16 8 -19 4 -4 -3 -9 2 -13 11 -3 9 -17 16 -29 16
-18 0 -28 -10 -41 -40 -10 -22 -23 -39 -28 -39 -31 4 -38 -2 -32 -26 5 -18 2
-25 -8 -25 -8 0 -16 5 -18 12 -2 6 -20 11 -39 10 l-34 -1 35 30 c19 16 43 27
53 25 33 -8 18 30 -20 51 -18 10 -21 10 -17 0 3 -8 -6 -18 -21 -25 -17 -8 -25
-19 -25 -37 0 -15 -6 -25 -14 -25 -7 0 -19 -6 -25 -13 -13 -16 14 -31 74 -43
26 -5 35 -11 31 -21 -3 -8 -6 -16 -6 -18 0 -2 -14 3 -31 12 -16 8 -33 13 -36
10 -3 -4 6 -9 21 -13 25 -6 37 -24 15 -24 -18 0 -51 21 -85 56 -19 18 -48 40
-66 48 -35 17 -40 26 -89 156 -31 84 -31 88 -34 285 -3 205 -29 469 -59 610
-30 138 -50 200 -108 330 -26 58 -43 112 -47 153 l-7 63 45 -8 c47 -8 179 -9
536 -2 264 5 272 3 385 -110 97 -97 131 -111 197 -81 62 29 135 121 148 188
13 70 93 136 267 220 144 70 172 91 210 160 9 17 32 38 51 45 39 17 77 72 77
111 0 33 -13 33 -34 1 -9 -14 -25 -25 -34 -25 -10 0 -28 -9 -40 -20 -12 -11
-26 -20 -32 -20 -6 0 -13 -7 -16 -15 -4 -8 -14 -15 -24 -15 -10 0 -20 -3 -22
-7 -1 -5 -23 -19 -47 -31 -33 -18 -51 -22 -79 -17 -26 5 -32 9 -21 16 26 16
-64 -2 -136 -28 -38 -14 -92 -29 -120 -34 -27 -4 -66 -12 -86 -17 -101 -25
-517 19 -659 69 -174 62 -356 120 -455 144 -38 9 -77 21 -86 26 -9 5 -32 9
-50 10 -19 2 -38 5 -44 8 -5 3 -24 6 -41 7 -38 2 -142 62 -150 86 -3 9 -15 20
-27 23 -12 4 -37 14 -56 22 -38 17 -145 27 -136 12 4 -5 1 -9 -6 -9 -8 0 -10
-22 -6 -77 4 -48 -4 -15 -19 86 -13 90 -29 170 -35 177 -17 21 -102 16 -662
-36z m641 -112 c6 -35 34 -216 62 -402 39 -266 47 -342 38 -348 -7 -4 -44 -8
-83 -8 -38 -1 -288 -13 -555 -29 -267 -15 -487 -27 -489 -25 -5 5 -123 766
-119 770 8 7 1046 95 1070 90 15 -3 30 -1 33 4 16 26 32 6 43 -52z m-1059 -9
c-20 -13 -29 -11 -29 5 0 16 33 27 39 13 2 -5 -3 -13 -10 -18z m119 14 c2 -9
-11 -13 -47 -13 -48 0 -61 7 -44 24 12 11 86 2 91 -11z m-160 -10 c2 -8 -5
-13 -17 -13 -12 0 -21 6 -21 16 0 18 31 15 38 -3z m1189 -230 c-3 -10 -5 -4
-5 12 0 17 2 24 5 18 2 -7 2 -21 0 -30z m10 -80 c-3 -10 -5 -4 -5 12 0 17 2
24 5 18 2 -7 2 -21 0 -30z m10 -65 c-3 -7 -5 -2 -5 12 0 14 2 19 5 13 2 -7 2
-19 0 -25z m10 -60 c-3 -8 -6 -5 -6 6 -1 11 2 17 5 13 3 -3 4 -12 1 -19z m10
-80 c-3 -7 -5 -2 -5 12 0 14 2 19 5 13 2 -7 2 -19 0 -25z m10 -70 c-3 -8 -6
-5 -6 6 -1 11 2 17 5 13 3 -3 4 -12 1 -19z m20 -140 c-3 -8 -6 -5 -6 6 -1 11
2 17 5 13 3 -3 4 -12 1 -19z"/>
<path d="M4483 3973 c-7 -2 -13 -12 -13 -20 0 -12 8 -14 38 -9 20 3 45 6 54 6
11 0 15 5 12 15 -6 15 -63 20 -91 8z m54 -9 c-3 -3 -12 -4 -19 -1 -8 3 -5 6 6
6 11 1 17 -2 13 -5z"/>
<path d="M7944 3864 c-18 -14 -18 -14 6 -3 31 14 36 19 24 19 -6 0 -19 -7 -30
-16z"/>
<path d="M8055 3860 c3 -5 11 -10 16 -10 6 0 7 5 4 10 -3 6 -11 10 -16 10 -6
0 -7 -4 -4 -10z"/>
<path d="M7945 3820 c-3 -5 -2 -10 4 -10 5 0 13 5 16 10 3 6 2 10 -4 10 -5 0
-13 -4 -16 -10z"/>
<path d="M2650 3441 c0 -5 17 -16 38 -24 64 -26 127 -108 181 -237 22 -54 33
-117 36 -221 3 -92 1 -107 -11 -102 -12 4 -14 0 -8 -21 4 -16 2 -26 -5 -26 -6
0 -11 10 -11 22 0 20 -1 21 -20 3 -11 -10 -20 -28 -20 -40 0 -31 -28 -54 -40
-34 -7 9 -5 15 5 17 19 4 19 16 -1 53 -12 25 -18 28 -30 18 -20 -16 -18 -29 5
-29 11 0 22 -4 25 -9 11 -17 -7 -19 -47 -5 -22 8 -49 12 -59 8 -19 -6 -25 -39
-8 -49 6 -4 7 -11 4 -17 -4 -6 -9 -5 -15 3 -4 7 -11 10 -16 6 -4 -4 -2 -17 5
-27 16 -25 15 -30 -3 -30 -8 0 -15 7 -15 15 0 8 -7 15 -15 15 -8 0 -15 7 -15
15 0 8 -7 15 -16 15 -14 0 -14 3 -4 15 10 12 10 15 -4 15 -22 0 -20 17 4 32
33 21 23 28 -16 12 l-36 -15 6 25 c9 36 -9 33 -26 -4 -14 -32 -28 -40 -28 -15
0 8 -6 15 -14 15 -8 0 -16 6 -19 13 -2 7 -8 8 -13 3 -5 -5 -4 -11 4 -13 20 -8
14 -20 -13 -25 -17 -4 -25 -1 -25 8 0 8 -9 14 -20 14 -16 0 -20 -7 -20 -30 0
-27 3 -30 30 -30 17 0 30 -5 30 -11 0 -8 -11 -9 -32 -4 -55 12 -139 10 -148
-5 -6 -9 -21 -11 -51 -7 -24 3 -38 4 -31 1 20 -9 13 -21 -13 -21 -13 0 -38
-12 -55 -27 -17 -14 -40 -26 -51 -26 -13 0 -19 -7 -19 -24 0 -15 -7 -26 -19
-29 -20 -5 -24 -38 -7 -65 4 -7 1 -15 -8 -18 -18 -7 -22 -34 -6 -34 22 0 8
-28 -16 -34 -26 -7 -26 -8 -8 -20 10 -8 28 -16 39 -19 11 -2 -25 -6 -80 -7
-55 -1 -111 -3 -125 -5 -57 -8 -217 -46 -250 -59 -19 -7 -68 -26 -109 -42 -93
-36 -76 -44 21 -10 158 54 265 76 341 70 38 -3 80 -12 92 -20 12 -8 25 -11 30
-7 4 5 6 1 3 -7 -4 -12 -26 -15 -106 -16 -92 -2 -124 5 -89 19 7 3 6 6 -5 6
-9 1 -19 -3 -22 -8 -3 -4 -24 -11 -46 -15 -22 -3 -74 -22 -115 -41 -41 -19
-80 -35 -88 -35 -8 0 -32 -12 -53 -28 -21 -15 -64 -36 -94 -47 -52 -18 -223
-103 -265 -131 -34 -24 -43 -52 -33 -106 7 -35 6 -54 -3 -64 -6 -7 -8 -21 -5
-30 4 -9 1 -23 -5 -30 -25 -31 -22 -215 7 -324 6 -24 6 -24 -9 -5 -8 11 -20
47 -27 80 -7 33 -16 65 -20 70 -5 6 -11 47 -15 92 -9 100 -24 119 -53 68 -12
-19 -26 -53 -33 -75 -13 -43 -18 -47 -37 -28 -9 9 -12 6 -12 -15 0 -15 4 -27
10 -27 11 0 29 -31 33 -57 3 -24 36 -66 62 -80 13 -8 20 -22 20 -40 0 -19 7
-31 23 -38 24 -11 31 -58 11 -71 -15 -9 -81 64 -104 115 -10 23 -21 41 -25 41
-4 0 -15 21 -25 48 -10 26 -26 58 -36 72 -18 26 -45 148 -35 157 3 3 12 0 21
-7 23 -19 18 4 -8 32 -36 39 -55 41 -83 11 -19 -20 -22 -29 -12 -36 10 -7 10
-10 1 -14 -7 -2 -13 -12 -13 -20 0 -9 -16 -33 -36 -55 -72 -80 -104 -211 -83
-340 18 -114 73 -184 169 -217 30 -10 88 -31 128 -45 72 -27 74 -27 193 -16
67 6 132 15 145 20 18 7 24 6 24 -5 0 -37 128 -36 171 1 17 15 120 49 196 65
23 4 59 17 80 27 31 15 48 17 93 10 30 -4 75 -6 100 -3 25 3 212 6 415 7 309
2 374 0 395 -12 25 -15 25 -15 -20 -21 -25 -3 -35 -7 -23 -7 12 -1 25 -6 28
-12 3 -5 14 -10 24 -10 9 0 37 -10 61 -21 38 -18 55 -21 124 -15 132 10 173 9
347 -2 92 -6 202 -9 245 -7 44 2 144 7 224 10 133 5 284 23 370 45 44 11 124
18 318 26 84 4 155 11 158 15 3 5 18 6 34 2 16 -3 37 -2 47 2 21 10 22 10 408
19 270 6 341 10 630 35 61 5 171 15 245 21 160 13 170 16 170 40 0 16 -6 18
-34 15 -42 -6 -58 12 -19 20 15 4 38 11 49 17 26 12 94 4 104 -12 5 -9 9 -9
14 -1 4 6 12 9 17 6 15 -10 289 -16 289 -7 0 5 -18 18 -40 31 -36 20 -46 21
-93 12 -76 -15 -147 -19 -182 -11 -16 5 -49 11 -72 14 -37 5 -43 4 -43 -11 0
-12 -3 -14 -8 -6 -4 7 -18 16 -31 21 -23 8 -24 14 -26 83 -3 142 -6 177 -15
149 -8 -24 -8 -24 -9 -2 -1 12 -5 22 -11 22 -22 0 -50 47 -61 101 -7 37 -20
66 -35 80 -27 25 -32 44 -9 36 24 -10 27 11 5 33 -11 11 -20 25 -20 30 0 6
-11 20 -25 32 -14 12 -25 27 -25 33 0 6 -11 21 -25 33 -26 23 -48 31 -27 10
16 -16 15 -28 -2 -28 -11 0 -13 -16 -10 -80 5 -79 0 -92 -25 -67 -10 10 -16 8
-30 -9 -10 -12 -26 -24 -37 -26 -11 -2 -20 -13 -23 -28 -4 -34 -16 -40 -83
-40 l-58 0 20 33 c26 41 25 63 -1 70 -16 4 -19 11 -14 26 4 12 2 21 -4 21 -6
0 -8 6 -5 14 11 28 -39 110 -107 177 -38 37 -69 74 -69 81 0 16 -128 113 -137
104 -9 -8 16 -62 51 -109 42 -57 57 -87 63 -122 3 -16 9 -35 13 -40 5 -6 9
-20 9 -30 -1 -11 2 -31 6 -45 6 -24 6 -24 -9 -6 -9 11 -19 34 -22 53 -9 50
-20 40 -34 -32 -7 -36 -16 -65 -20 -65 -4 0 -10 -11 -12 -24 -3 -16 -1 -23 7
-20 8 3 12 -5 13 -23 0 -15 4 -62 7 -103 12 -129 -33 -336 -86 -404 -11 -15
-25 -23 -30 -20 -6 3 -27 6 -47 6 -20 0 -45 6 -56 14 -11 8 -27 14 -35 14 -7
0 -33 18 -57 40 -24 22 -48 40 -53 40 -5 0 -11 10 -13 23 -2 18 -9 22 -40 22
-20 0 -40 3 -44 8 -4 4 0 7 9 7 26 0 21 37 -8 56 -38 25 -47 11 -39 -67 4 -40
3 -69 -3 -69 -5 0 -26 31 -46 70 -37 68 -39 69 -75 67 -25 -1 -36 2 -34 11 1
6 -2 12 -7 12 -5 0 -11 -12 -13 -27 -2 -20 -8 -28 -20 -27 -14 1 -18 -6 -18
-32 0 -31 -2 -34 -19 -25 -18 10 -81 130 -81 156 0 6 -9 20 -20 30 -11 10 -20
25 -20 33 0 12 -3 12 -15 2 -17 -14 -20 -46 -5 -55 13 -8 3 -25 -16 -25 -9 0
-14 11 -14 30 0 19 -5 30 -15 31 -25 2 -29 4 -59 24 -27 18 -29 18 -41 1 -10
-14 -15 -14 -22 -4 -23 36 -33 55 -39 71 -3 9 -10 17 -15 17 -15 0 -10 -60 11
-161 26 -122 25 -124 -10 -60 -17 30 -30 63 -30 73 0 24 -39 101 -56 111 -8 4
-14 16 -14 26 0 21 -16 36 -47 44 -14 3 -23 1 -23 -6 0 -8 -4 -7 -9 2 -5 7 -7
21 -4 30 2 10 -7 44 -22 77 -26 58 -31 72 -54 128 -10 23 -16 27 -34 21 -12
-4 -32 -8 -44 -9 -18 -1 -21 -5 -16 -26 4 -14 6 -33 5 -42 0 -10 3 -18 8 -18
5 0 28 -19 50 -42 37 -39 39 -43 20 -50 -29 -11 -25 -34 10 -48 33 -14 38 -31
15 -50 -9 -8 -12 -17 -7 -24 5 -6 14 -27 21 -46 11 -34 10 -33 -46 25 -37 38
-63 75 -70 100 -7 22 -33 71 -58 109 -25 38 -44 74 -42 79 1 5 26 21 54 36 90
46 115 113 69 182 l-25 36 20 33 c22 36 19 92 -6 127 -12 15 -12 12 -1 -21 15
-44 13 -61 -15 -96 l-19 -25 -20 25 c-24 30 -57 96 -65 132 -5 21 -3 27 15 33
17 5 19 10 9 21 -9 11 -8 15 5 20 10 4 15 13 12 20 -3 9 4 16 19 20 47 12 16
20 -82 20 l-98 1 68 -10 c37 -5 67 -13 67 -18 0 -4 -9 -17 -21 -28 -21 -19
-21 -19 -41 1 -21 21 -41 20 -46 -4 -2 -10 7 -17 27 -21 24 -5 29 -10 24 -23
-4 -11 -2 -15 4 -11 13 8 31 -43 31 -88 1 -16 10 -51 22 -78 12 -26 18 -52 15
-57 -13 -21 -86 -51 -107 -44 -12 4 -18 2 -14 -4 3 -5 -1 -16 -10 -23 -13 -10
-17 -10 -24 1 -5 7 -16 15 -26 16 -32 5 -46 31 -48 88 -2 60 -24 101 -77 144
-16 13 -29 33 -29 44 0 19 5 20 90 16 83 -4 90 -3 90 15 0 15 -5 18 -27 13
-16 -3 -56 -8 -90 -11 l-63 -7 0 94 c0 85 -12 194 -26 242 -5 15 -8 16 -15 5
-6 -10 -9 -5 -9 15 l0 29 -23 -24 c-13 -13 -20 -28 -15 -33 11 -14 10 -46 -2
-46 -5 0 -9 -3 -8 -7 2 -12 -21 -63 -28 -63 -3 0 -4 12 -1 27 4 21 -3 37 -25
65 -22 29 -26 38 -14 38 22 0 20 32 -4 53 -14 12 -19 28 -18 57 1 23 -5 47
-14 57 -8 10 -14 23 -11 29 4 12 -26 12 -45 0 -17 -10 -20 -6 -32 33 -5 19 -5
31 1 31 5 0 9 -9 9 -20 0 -13 7 -20 20 -20 11 0 20 5 20 10 0 6 -7 10 -15 10
-8 0 -15 9 -15 20 0 11 -7 23 -15 26 -8 3 -34 48 -59 99 -68 144 -128 199
-244 224 -64 13 -82 14 -82 2z m447 -447 c-3 -3 -12 -4 -19 -1 -8 3 -5 6 6 6
11 1 17 -2 13 -5z m-612 -220 c-10 -7 -22 -11 -28 -7 -6 3 -3 11 8 19 10 7 22
11 28 7 6 -3 3 -11 -8 -19z m365 -24 c0 -11 -7 -20 -15 -20 -17 0 -18 2 -9 24
9 23 24 20 24 -4z m-509 -23 c-13 -13 -26 -3 -16 12 3 6 11 8 17 5 6 -4 6 -10
-1 -17z m229 1 c0 -17 -3 -19 -9 -9 -7 10 -13 11 -31 1 -12 -6 -25 -9 -28 -5
-3 3 4 8 16 12 12 3 22 9 22 14 0 5 7 9 15 9 9 0 15 -9 15 -22z m-310 2 c0 -5
-2 -10 -4 -10 -3 0 -8 5 -11 10 -3 6 -1 10 4 10 6 0 11 -4 11 -10z m518 -8 c2
-7 -3 -12 -12 -12 -9 0 -16 7 -16 16 0 17 22 14 28 -4z m-293 -22 c-3 -5 -10
-10 -16 -10 -5 0 -9 5 -9 10 0 6 7 10 16 10 8 0 12 -4 9 -10z m-85 -16 c0 -2
-15 -4 -32 -4 -23 0 -29 3 -19 9 12 8 51 4 51 -5z m109 -183 c13 -1 22 -4 18
-7 -3 -4 -57 -6 -119 -6 -92 0 -122 -4 -160 -21 -27 -11 -48 -25 -48 -30 0 -6
5 -5 13 1 14 11 67 13 67 2 0 -4 -16 -11 -35 -14 -19 -4 -37 -12 -41 -17 -4
-8 5 -9 27 -5 29 5 31 4 13 -5 -12 -6 -27 -22 -33 -35 -9 -21 -14 -23 -31 -14
-11 6 -19 16 -17 22 2 13 -55 16 -90 4 -42 -14 -24 13 33 50 87 56 201 84 314
79 36 -2 76 -4 89 -4z m-100 -54 c12 -15 12 -85 -1 -93 -4 -3 -8 0 -8 5 0 18
-67 13 -74 -5 -5 -14 -1 -16 24 -11 23 5 30 3 30 -9 0 -13 -7 -15 -29 -11 -19
4 -33 1 -41 -8 -26 -32 -29 -13 -5 32 14 27 25 54 25 60 0 15 16 17 25 3 10
-16 32 -12 39 7 9 22 -13 34 -37 21 -21 -11 -33 -5 -22 11 9 15 60 14 74 -2z
m-489 -37 c0 -5 -5 -10 -11 -10 -5 0 -7 5 -4 10 3 6 8 10 11 10 2 0 4 -4 4
-10z m335 -103 c-20 -11 -29 -3 -21 19 5 13 9 14 22 3 14 -11 14 -13 -1 -22z
m95 -36 c-12 -24 -37 -34 -46 -19 -8 13 34 51 47 42 5 -3 5 -13 -1 -23z m1392
-71 c10 -14 18 -31 18 -39 0 -20 -71 -85 -110 -101 -34 -14 -45 -8 -55 30 -5
22 -2 27 29 38 39 14 76 55 76 83 0 25 21 20 42 -11z m-102 -25 c-7 -8 -22
-15 -34 -15 -18 0 -17 2 9 19 34 21 44 19 25 -4z m2115 -205 c-3 -5 -13 -10
-21 -10 -8 0 -14 5 -14 10 0 6 9 10 21 10 11 0 17 -4 14 -10z m25 -65 c0 -8
-4 -15 -9 -15 -13 0 -22 16 -14 24 11 11 23 6 23 -9z m-2150 -37 c0 -16 -3
-19 -11 -11 -6 6 -8 16 -5 22 11 17 16 13 16 -11z m1603 -19 c12 -1 4 -5 -18
-9 -44 -9 -50 -7 -40 10 4 6 14 9 22 6 8 -3 24 -7 36 -7z m-4543 -19 c0 -5 -4
-10 -10 -10 -5 0 -10 5 -10 10 0 6 5 10 10 10 6 0 10 -4 10 -10z m133 -321
c46 -69 47 -80 5 -73 l-33 6 25 -21 c14 -11 37 -23 51 -26 14 -3 54 -35 89
-70 62 -62 63 -65 46 -84 -21 -23 -47 -33 -144 -57 -86 -21 -97 -17 -128 47
-27 56 -19 72 16 31 46 -56 76 -35 35 25 -18 28 -25 51 -25 88 0 27 -9 79 -20
115 -24 78 -24 79 -6 54 14 -18 15 -18 26 10 12 32 11 33 63 -45z m281 -328
c-3 -3 -15 6 -27 18 l-22 24 27 -19 c14 -10 24 -21 22 -23z"/>
<path d="M5498 3142 c-24 -2 -38 -8 -38 -17 0 -10 10 -12 38 -8 42 7 46 8 41
20 -2 4 -21 7 -41 5z"/>
<path d="M5550 3135 c0 -10 10 -15 34 -15 21 0 36 6 40 15 4 12 -3 15 -34 15
-29 0 -40 -4 -40 -15z"/>
<path d="M5636 3134 c-5 -12 1 -15 31 -12 48 4 57 28 10 28 -22 0 -37 -6 -41
-16z"/>
<path d="M5313 3133 c-36 -7 -27 -23 12 -23 24 0 35 5 35 15 0 15 -6 16 -47 8z"/>
<path d="M5376 3124 c-5 -12 1 -15 31 -12 48 4 57 28 10 28 -22 0 -37 -6 -41
-16z"/>
<path d="M5126 3123 c-17 -17 0 -23 62 -21 73 2 92 6 92 19 0 9 -145 11 -154
2z"/>
<path d="M4898 3113 c-40 -6 -34 -23 7 -23 24 0 35 5 35 15 0 8 -3 14 -7 14
-5 -1 -20 -4 -35 -6z"/>
<path d="M4956 3113 c-14 -15 -4 -23 29 -23 19 0 35 5 35 10 0 7 6 8 16 2 18
-10 74 -4 74 9 0 9 -145 11 -154 2z"/>
<path d="M4710 3103 c0 -5 -43 -7 -95 -6 -74 1 -97 -2 -107 -14 -12 -14 -3
-15 82 -8 52 4 115 8 139 9 55 1 70 26 17 26 -20 0 -36 -3 -36 -7z"/>
<path d="M4790 3096 c0 -13 12 -15 63 -7 4 0 7 6 7 11 0 6 -16 10 -35 10 -24
0 -35 -5 -35 -14z"/>
<path d="M5508 3103 c-10 -2 -18 -11 -18 -18 0 -7 -3 -20 -6 -29 -5 -13 1 -16
34 -16 33 0 41 4 46 23 12 47 1 55 -56 40z"/>
<path d="M5580 3098 c0 -7 -3 -23 -6 -35 -6 -21 -3 -23 37 -24 24 -1 34 -4 21
-6 -27 -5 -48 -49 -32 -67 6 -8 6 -24 1 -42 -4 -16 -6 -35 -4 -41 4 -10 -14
-13 -66 -13 -75 0 -75 0 -85 -43 l-7 -29 92 4 c85 3 92 5 100 26 13 35 11 50
-8 55 -14 4 -13 5 4 6 17 1 25 10 32 39 22 82 24 104 10 113 -11 7 -11 9 2 9
17 0 29 19 29 46 0 10 -15 14 -60 14 -41 0 -60 -4 -60 -12z"/>
<path d="M2630 3089 c0 -5 5 -7 10 -4 6 3 10 8 10 11 0 2 -4 4 -10 4 -5 0 -10
-5 -10 -11z"/>
<path d="M5320 3074 c-17 -43 -14 -45 66 -40 78 4 94 12 94 49 0 13 -8 17 -34
17 -28 0 -36 -5 -45 -27 l-11 -28 5 28 c5 25 3 27 -30 27 -29 0 -37 -5 -45
-26z"/>
<path d="M5073 3078 c-6 -7 -13 -20 -17 -28 -3 -8 -4 -5 -2 8 4 19 0 22 -29
22 -22 0 -38 -6 -44 -17 -10 -17 -10 -17 -11 0 0 12 -8 17 -30 17 -30 0 -50
-22 -50 -54 0 -21 44 -21 64 0 9 8 16 11 16 5 0 -6 31 -10 75 -10 72 0 76 1
85 25 6 14 10 30 10 35 0 14 -56 11 -67 -3z"/>
<path d="M5146 3067 c-10 -38 -7 -47 17 -47 26 0 51 17 61 40 3 8 4 5 2 -7 -4
-21 0 -23 35 -23 27 0 39 4 39 14 0 8 3 21 6 30 5 12 -7 15 -74 15 -74 0 -80
-2 -86 -22z"/>
<path d="M2586 3066 c3 -8 15 -17 27 -20 31 -8 30 -2 -3 18 -24 13 -29 14 -24
2z"/>
<path d="M4843 3073 c-13 -2 -26 -16 -32 -34 -10 -28 -9 -29 25 -29 28 0 36 5
44 26 18 45 15 47 -37 37z"/>
<path d="M4650 3044 c-15 -39 -13 -44 20 -44 19 0 33 7 40 19 18 35 12 51 -20
51 -24 0 -33 -6 -40 -26z"/>
<path d="M4730 3044 c-15 -39 -13 -41 27 -35 29 5 38 12 44 34 7 26 5 27 -27
27 -28 0 -36 -5 -44 -26z"/>
<path d="M6050 3061 c0 -5 9 -19 20 -32 l20 -24 -11 33 c-10 29 -29 45 -29 23z"/>
<path d="M4490 3034 c-15 -40 -12 -46 21 -40 37 6 36 4 44 39 7 25 5 27 -24
27 -25 0 -34 -6 -41 -26z"/>
<path d="M4566 3038 c-9 -36 -8 -38 28 -38 26 0 35 5 40 23 9 35 8 37 -28 37
-26 0 -35 -5 -40 -22z"/>
<path d="M5436 3014 c-9 -8 -16 -24 -16 -35 0 -15 7 -19 34 -19 38 0 40 2 50
43 6 25 4 27 -23 27 -16 0 -37 -7 -45 -16z"/>
<path d="M5516 3014 c-3 -9 -6 -25 -6 -35 0 -17 6 -20 32 -17 25 2 34 10 45
36 l13 32 -39 0 c-26 0 -41 -5 -45 -16z"/>
<path d="M2450 3010 c0 -5 7 -10 16 -10 8 0 12 5 9 10 -3 6 -10 10 -16 10 -5
0 -9 -4 -9 -10z"/>
<path d="M5188 3013 c-10 -2 -18 -8 -18 -11 0 -4 -3 -17 -6 -29 -6 -21 -3 -23
29 -23 30 0 37 4 46 31 6 18 11 34 11 35 0 5 -40 3 -62 -3z"/>
<path d="M5252 2988 c-8 -32 -8 -33 26 -36 40 -4 40 -4 48 36 6 31 6 32 -29
32 -33 0 -37 -3 -45 -32z"/>
<path d="M5340 3008 c0 -7 -3 -23 -6 -35 -6 -20 -3 -23 22 -23 38 0 49 9 58
43 6 26 5 27 -34 27 -25 0 -40 -5 -40 -12z"/>
<path d="M5000 2984 c-15 -39 -13 -44 24 -44 29 0 36 4 45 31 6 18 11 34 11
35 0 2 -16 4 -35 4 -29 0 -37 -5 -45 -26z"/>
<path d="M5081 2978 c-14 -39 -11 -42 32 -34 24 5 37 13 41 29 9 35 8 37 -28
37 -29 0 -36 -4 -45 -32z"/>
<path d="M2591 2984 c-18 -21 -7 -29 18 -12 12 8 18 18 14 21 -9 10 -16 8 -32
-9z"/>
<path d="M4768 2992 c-10 -2 -18 -10 -18 -17 0 -7 -3 -20 -6 -29 -5 -13 1 -16
28 -16 28 0 36 5 46 28 l12 27 -5 -27 c-5 -25 -2 -28 22 -28 37 0 49 9 57 42
l6 27 -62 -1 c-35 -1 -71 -4 -80 -6z"/>
<path d="M4916 2984 c-13 -34 -6 -44 28 -44 32 0 45 15 46 53 0 15 -68 7 -74
-9z"/>
<path d="M4505 2983 c-32 -5 -45 -18 -45 -45 0 -14 9 -18 40 -18 42 0 80 26
80 55 0 15 -14 17 -75 8z"/>
<path d="M4590 2981 c0 -5 -3 -16 -6 -25 -4 -11 0 -16 14 -16 11 0 22 -6 25
-12 6 -18 24 1 32 35 7 26 5 27 -29 27 -20 0 -36 -4 -36 -9z"/>
<path d="M4666 2968 c-9 -36 -8 -38 28 -38 26 0 35 5 40 23 9 35 8 37 -28 37
-26 0 -35 -5 -40 -22z"/>
<path d="M2410 2949 c0 -5 5 -7 10 -4 6 3 10 8 10 11 0 2 -4 4 -10 4 -5 0 -10
-5 -10 -11z"/>
<path d="M5379 2942 c-31 -3 -38 -7 -42 -30 -6 -32 4 -40 42 -34 23 3 30 10
35 35 3 16 5 31 4 31 -2 1 -19 0 -39 -2z"/>
<path d="M5426 2928 c-11 -42 -7 -48 28 -48 38 0 40 2 50 43 6 26 5 27 -33 27
-32 0 -40 -4 -45 -22z"/>
<path d="M5516 2934 c-14 -37 -7 -54 23 -54 31 0 45 12 54 48 5 20 2 22 -33
22 -25 0 -40 -5 -44 -16z"/>
<path d="M6100 2943 c0 -4 5 -15 10 -23 8 -13 10 -13 10 2 0 9 -4 20 -10 23
-5 3 -10 3 -10 -2z"/>
<path d="M5112 2933 c-19 -4 -42 -36 -42 -59 0 -2 18 -4 40 -4 33 0 40 4 42
20 0 11 1 25 2 32 1 14 -11 17 -42 11z"/>
<path d="M5170 2914 c-15 -39 -13 -44 24 -44 29 0 36 4 45 31 6 18 11 34 11
35 0 2 -16 4 -35 4 -29 0 -37 -5 -45 -26z"/>
<path d="M5251 2909 c-6 -18 -11 -34 -11 -35 0 -2 16 -4 35 -4 24 0 37 6 45
19 19 37 12 51 -24 51 -29 0 -36 -4 -45 -31z"/>
<path d="M2420 2914 c-19 -8 -43 -17 -52 -20 -17 -6 -32 -33 -24 -42 5 -5 136
36 158 49 32 20 -37 31 -82 13z"/>
<path d="M2670 2921 c0 -13 29 -35 37 -28 7 8 -15 37 -28 37 -5 0 -9 -4 -9 -9z"/>
<path d="M4911 2899 c-6 -18 -11 -34 -11 -35 0 -2 16 -4 35 -4 29 0 37 5 45
26 15 39 13 44 -24 44 -29 0 -36 -4 -45 -31z"/>
<path d="M4996 2908 c-11 -43 -8 -49 26 -46 25 2 34 10 45 36 l13 32 -39 0
c-32 0 -40 -4 -45 -22z"/>
<path d="M2790 2912 c0 -4 9 -14 19 -21 16 -12 17 -18 8 -38 -11 -25 -5 -39
12 -28 17 10 13 60 -7 78 -20 18 -32 22 -32 9z"/>
<path d="M4718 2915 c-3 -3 -23 -6 -44 -6 -45 -1 -94 -17 -94 -31 0 -5 -5 -6
-10 -3 -6 3 -22 -3 -36 -14 -15 -12 -32 -21 -39 -21 -6 0 -20 -10 -31 -22 -19
-21 -19 -21 0 -14 13 4 9 -4 -13 -26 -17 -17 -31 -35 -31 -40 0 -4 -6 -8 -13
-8 -7 0 -21 -9 -30 -21 -18 -20 -18 -21 5 -14 31 9 122 56 128 66 10 14 194
58 205 48 5 -6 3 -9 -7 -9 -8 0 -35 -10 -59 -23 -24 -13 -51 -21 -60 -20 -9 2
-16 -2 -17 -9 -6 -64 -29 -97 -88 -128 -16 -9 -29 -20 -29 -26 0 -6 -8 -19
-18 -28 -32 -33 -17 -48 77 -74 82 -23 89 -24 98 -9 5 10 19 27 31 38 20 19
22 19 26 3 2 -12 9 -5 22 24 11 23 23 42 28 42 4 0 18 20 30 45 12 25 30 49
39 54 9 5 93 12 185 16 166 8 169 8 178 32 5 13 9 29 9 34 0 6 -63 8 -172 6
-95 -3 -152 -3 -126 0 41 4 48 7 57 35 6 17 11 33 11 34 0 2 -16 4 -35 4 -21
0 -37 -6 -43 -16 -8 -14 -10 -13 -15 5 -4 18 -1 21 23 21 22 0 30 6 39 30 10
30 10 30 -29 30 -37 0 -39 -2 -46 -35 -3 -19 -10 -35 -15 -35 -5 0 -4 12 1 26
6 14 10 30 10 35 0 14 -68 11 -73 -3 -4 -10 -6 -10 -6 0 -1 12 -13 16 -23 7z
m39 -101 c-3 -3 -12 -4 -19 -1 -8 3 -5 6 6 6 11 1 17 -2 13 -5z"/>
<path d="M4434 2900 c-22 -9 -42 -30 -27 -30 4 1 24 9 43 20 35 19 24 26 -16
10z"/>
<path d="M5679 2898 c-1 -7 -2 -25 -2 -40 -1 -15 -3 -25 -6 -22 -3 3 -13 -19
-23 -47 -14 -41 -15 -55 -6 -60 25 -16 43 19 25 47 -4 7 0 17 8 24 9 7 15 29
15 51 0 29 4 39 16 39 8 0 12 5 9 10 -9 14 -35 12 -36 -2z"/>
<path d="M2610 2891 c0 -6 5 -13 10 -16 6 -3 10 -17 10 -31 0 -27 15 -32 24
-8 8 21 9 18 -13 42 -20 23 -31 28 -31 13z"/>
<path d="M2483 2868 c2 -7 10 -13 17 -13 7 0 15 6 18 13 2 7 -5 12 -18 12 -13
0 -20 -5 -17 -12z"/>
<path d="M2710 2850 c0 -11 5 -20 10 -20 6 0 10 9 10 20 0 11 -4 20 -10 20 -5
0 -10 -9 -10 -20z"/>
<path d="M5367 2863 c-2 -5 -7 -20 -11 -35 -6 -27 -5 -28 33 -28 39 0 50 13
51 58 0 13 -66 18 -73 5z"/>
<path d="M5048 2852 c-16 -2 -28 -6 -28 -10 0 -4 -3 -17 -6 -29 -6 -21 -3 -23
30 -23 30 0 37 4 42 26 8 31 -2 41 -38 36z"/>
<path d="M5101 2829 c-6 -18 -11 -34 -11 -35 0 -2 18 -4 40 -4 25 0 40 5 40
13 0 6 3 22 6 35 6 20 3 22 -29 22 -30 0 -37 -4 -46 -31z"/>
<path d="M5190 2848 c0 -7 -3 -23 -6 -35 -6 -21 -3 -23 29 -23 39 0 41 2 51
43 6 26 5 27 -34 27 -25 0 -40 -5 -40 -12z"/>
<path d="M5276 2844 c-3 -9 -6 -25 -6 -36 0 -17 4 -19 33 -13 35 8 47 20 47
48 0 23 -65 24 -74 1z"/>
<path d="M4931 2819 c-14 -41 -15 -39 17 -39 36 0 49 10 57 43 7 26 5 27 -28
27 -30 0 -37 -4 -46 -31z"/>
<path d="M6120 2836 c0 -8 5 -18 10 -21 6 -3 10 3 10 14 0 12 -4 21 -10 21 -5
0 -10 -6 -10 -14z"/>
<path d="M2285 2810 c-3 -5 1 -10 9 -10 9 0 16 5 16 10 0 6 -4 10 -9 10 -6 0
-13 -4 -16 -10z"/>
<path d="M3175 2810 c3 -5 8 -10 11 -10 2 0 4 5 4 10 0 6 -5 10 -11 10 -5 0
-7 -4 -4 -10z"/>
<path d="M5568 2793 c-16 -2 -28 -10 -28 -16 0 -7 -3 -22 -6 -34 -6 -21 -3
-23 30 -23 30 0 38 5 47 27 10 27 6 54 -8 52 -4 -1 -20 -4 -35 -6z"/>
<path d="M5303 2782 c-14 -2 -25 -13 -29 -27 -8 -34 1 -43 38 -36 23 5 34 14
39 34 4 15 7 27 6 28 -8 4 -36 4 -54 1z"/>
<path d="M5362 2758 c-8 -32 -8 -33 26 -36 40 -4 40 -4 48 36 6 31 6 32 -29
32 -33 0 -37 -3 -45 -32z"/>
<path d="M5450 2764 c-15 -40 -13 -44 29 -44 32 0 40 4 45 23 11 41 7 47 -29
47 -29 0 -37 -5 -45 -26z"/>
<path d="M5165 2749 c-9 -38 -4 -43 37 -35 43 8 54 16 62 44 7 21 5 22 -43 22
-47 0 -50 -1 -56 -31z"/>
<path d="M5613 2651 c-7 -20 -8 -33 -1 -37 15 -9 20 1 16 36 l-3 33 -12 -32z"/>
<path d="M5336 2642 c-3 -6 -1 -14 5 -17 14 -9 20 -2 10 14 -6 8 -11 9 -15 3z"/>
<path d="M5240 2599 c0 -9 7 -24 15 -35 8 -10 15 -28 15 -39 2 -34 35 -80 56
-78 25 3 64 -17 64 -34 0 -7 7 -13 14 -13 8 0 36 -11 62 -25 26 -14 50 -25 53
-25 4 0 6 21 6 48 -1 42 -4 47 -23 44 -24 -3 -29 7 -11 25 13 13 -86 124 -106
117 -7 -3 -15 2 -18 13 -4 16 -5 16 -6 1 -1 -11 -13 -19 -37 -24 -29 -5 -40
-2 -60 17 -18 16 -24 19 -24 8z m230 -115 c0 -14 -4 -23 -10 -19 -5 3 -10 15
-10 26 0 10 5 19 10 19 6 0 10 -12 10 -26z"/>
<path d="M5590 2580 c0 -5 5 -10 11 -10 5 0 7 5 4 10 -3 6 -8 10 -11 10 -2 0
-4 -4 -4 -10z"/>
<path d="M3468 2563 c7 -3 16 -2 19 1 4 3 -2 6 -13 5 -11 0 -14 -3 -6 -6z"/>
<path d="M3388 2553 c6 -2 18 -2 25 0 6 3 1 5 -13 5 -14 0 -19 -2 -12 -5z"/>
<path d="M5593 2543 c9 -2 25 -2 35 0 9 3 1 5 -18 5 -19 0 -27 -2 -17 -5z"/>
<path d="M5557 2470 c-3 -11 -1 -20 4 -20 5 0 9 9 9 20 0 11 -2 20 -4 20 -2 0
-6 -9 -9 -20z"/>
<path d="M5015 2440 c3 -5 11 -10 16 -10 6 0 7 5 4 10 -3 6 -11 10 -16 10 -6
0 -7 -4 -4 -10z"/>
<path d="M5695 2370 c-36 -16 -84 -64 -90 -90 -4 -18 0 -34 15 -53 26 -32 44
-35 35 -6 -5 14 -2 25 6 30 12 8 11 11 -1 19 -13 8 -12 10 5 11 46 3 86 -22
106 -66 8 -16 8 -15 4 8 -6 28 0 33 24 18 10 -7 19 -4 27 7 10 14 14 10 33
-27 26 -51 37 -48 22 5 -12 45 -10 49 19 34 26 -14 37 -6 20 15 -9 11 -25 14
-58 11 -57 -5 -75 4 -107 54 -27 43 -29 44 -60 30z m28 -47 c3 -5 -6 -9 -20
-10 -19 -1 -22 1 -12 8 17 11 26 11 32 2z"/>
<path d="M5831 2050 c14 -31 19 -36 19 -24 0 6 -7 19 -16 30 -14 18 -14 18 -3
-6z"/>
<path d="M872 2031 c-44 -11 -71 -25 -88 -44 -28 -33 -33 -58 -6 -35 9 8 34
18 55 21 20 3 51 15 67 27 16 12 42 23 57 24 16 2 32 4 36 5 5 0 5 6 2 11 -9
14 -49 11 -123 -9z"/>
<path d="M3696 2021 c-4 -6 -3 -18 2 -27 8 -15 10 -14 16 2 8 20 -8 42 -18 25z"/>
<path d="M5060 1983 c0 -53 6 -65 36 -81 20 -10 20 -9 13 48 -7 65 -14 80 -35
80 -10 0 -14 -13 -14 -47z"/>
<path d="M5850 1977 c0 -16 7 -44 16 -63 9 -18 22 -52 30 -76 l14 -43 -6 60
c-3 33 -17 80 -30 105 -22 42 -23 43 -24 17z"/>
<path d="M4940 1966 c0 -2 7 -6 15 -10 8 -3 15 -1 15 4 0 6 -7 10 -15 10 -8 0
-15 -2 -15 -4z"/>
<path d="M841 1905 c-41 -45 -52 -63 -29 -49 23 14 86 94 75 94 -3 0 -23 -20
-46 -45z"/>
<path d="M6630 1769 c0 -5 5 -7 10 -4 6 3 10 8 10 11 0 2 -4 4 -10 4 -5 0 -10
-5 -10 -11z"/>
<path d="M7481 1671 c-8 -5 -9 -11 -3 -15 5 -3 12 1 16 9 6 17 6 18 -13 6z"/>
<path d="M7602 1622 c-7 -2 -12 -8 -12 -13 0 -6 5 -7 10 -4 6 3 10 1 10 -5 0
-6 -8 -9 -18 -6 -11 4 -22 -2 -30 -14 -11 -19 -10 -20 30 -19 24 1 69 8 101
17 l59 15 -39 18 c-35 17 -81 21 -111 11z"/>
<path d="M7222 1612 c-12 -2 -20 -7 -17 -12 3 -5 -11 -12 -32 -16 -21 -4 -42
-9 -48 -13 -12 -7 -18 -7 -67 -9 -27 -2 -36 -6 -32 -15 3 -8 10 -14 17 -15 7
-1 27 -5 46 -8 27 -5 32 -4 26 7 -7 11 -4 10 10 -1 17 -13 18 -13 13 1 -5 13
-2 16 13 12 10 -3 17 -8 15 -12 -2 -3 13 -5 35 -3 26 3 39 9 39 19 0 11 8 12
35 7 39 -7 45 4 14 26 -12 8 -27 20 -33 25 -6 6 -21 9 -34 7z m18 -36 c0 -11
-19 -15 -25 -6 -3 5 1 10 9 10 9 0 16 -2 16 -4z"/>
<path d="M7318 1613 c7 -3 16 -2 19 1 4 3 -2 6 -13 5 -11 0 -14 -3 -6 -6z"/>
<path d="M6085 1598 c4 -10 -7 -19 -35 -28 -43 -14 -52 -26 -20 -26 11 0 20 3
20 7 0 4 6 7 13 6 39 -1 48 4 45 25 -2 12 -9 23 -16 26 -7 2 -10 -2 -7 -10z"/>
<path d="M6915 1570 c-3 -5 -1 -10 4 -10 6 0 11 5 11 10 0 6 -2 10 -4 10 -3 0
-8 -4 -11 -10z"/>
<path d="M7432 1549 c-13 -5 -20 -13 -17 -19 8 -13 72 -13 80 0 3 6 -3 10 -14
10 -10 0 -21 4 -23 9 -2 5 -13 5 -26 0z"/>
<path d="M6890 1540 c8 -5 26 -9 40 -9 23 0 23 1 5 9 -11 5 -29 9 -40 9 -17 1
-17 -1 -5 -9z"/>
<path d="M6995 1540 c3 -5 8 -10 11 -10 2 0 4 5 4 10 0 6 -5 10 -11 10 -5 0
-7 -4 -4 -10z"/>
<path d="M7646 1539 c4 -8 -1 -9 -16 -4 -15 5 -20 4 -16 -4 9 -15 133 -14 142
0 5 9 -8 10 -45 7 -28 -3 -51 -1 -51 3 0 5 -5 9 -11 9 -5 0 -7 -5 -3 -11z"/>
<path d="M7380 1530 c0 -5 5 -10 10 -10 6 0 10 5 10 10 0 6 -4 10 -10 10 -5 0
-10 -4 -10 -10z"/>
<path d="M6800 1521 c-25 -7 -25 -7 5 -12 26 -4 108 5 95 10 -16 7 -79 8 -100
2z"/>
<path d="M7030 1500 c20 -13 53 -13 45 0 -3 6 -18 10 -33 10 -21 0 -24 -2 -12
-10z"/>
<path d="M7193 1503 c9 -2 25 -2 35 0 9 3 1 5 -18 5 -19 0 -27 -2 -17 -5z"/>
<path d="M6928 1493 c6 -2 18 -2 25 0 6 3 1 5 -13 5 -14 0 -19 -2 -12 -5z"/>
<path d="M6470 1370 c-20 -6 -14 -8 28 -9 28 -1 52 3 52 9 0 12 -44 12 -80 0z"/>
<path d="M7340 1251 c0 -24 -38 -34 -79 -20 -18 6 -50 8 -74 4 -51 -8 -115 -9
-225 -4 -70 3 -85 1 -93 -13 -8 -14 -15 -15 -38 -7 -40 14 -86 8 -86 -11 0
-18 46 -25 240 -37 151 -9 244 -8 335 4 62 8 65 9 65 35 1 38 -12 68 -30 68
-8 0 -15 -9 -15 -19z"/>
<path d="M7540 1180 c0 -5 7 -10 15 -10 8 0 15 5 15 10 0 6 -7 10 -15 10 -8 0
-15 -4 -15 -10z"/>
<path d="M4494 1144 c-18 -14 -17 -15 21 -10 22 3 55 6 73 6 20 0 31 4 27 10
-10 16 -99 12 -121 -6z"/>
</g>
</svg>
